<svg xmlns="http://www.w3.org/2000/svg" width="65" height="64" viewBox="0 0 65 64" version="1.1"><path d="M 23.830 8.027 L 20.161 9.965 18.184 12.742 L 16.207 15.518 15.022 19.918 L 13.837 24.318 14.504 27.875 L 15.171 31.431 16.574 33.965 L 17.976 36.500 21.449 40.372 L 24.923 44.244 26.384 43.683 L 27.845 43.122 27.303 41.051 L 26.762 38.981 24.337 36.740 L 21.912 34.500 20.456 31.800 L 19 29.099 19.004 24.800 L 19.007 20.500 20.995 17.241 L 22.982 13.982 26.241 11.995 L 29.500 10.007 32.290 10.004 L 35.080 10 39.019 12.010 L 42.959 14.020 44.359 16.760 L 45.759 19.500 46.458 22.747 L 47.157 25.993 46.060 29.319 L 44.962 32.644 41.481 36.018 L 38 39.392 38 41.696 L 38 44 39.250 44 L 40.500 43.999 44.750 39.063 L 49.001 34.128 50 31.499 L 51 28.870 50.978 24.685 L 50.956 20.500 49.110 16.500 L 47.264 12.500 44.882 10.317 L 42.500 8.133 39.685 7.067 L 36.870 6 32.185 6.044 L 27.500 6.088 23.830 8.027 M 27 56 L 27 58 32.500 58 L 38 58 38 56 L 38 54 32.500 54 L 27 54 27 56" stroke="none" fill="#242424" fill-rule="evenodd"/><path d="M 12.135 5.337 L 11.025 6.675 13.483 8.984 L 15.941 11.294 17.504 9.997 L 19.067 8.700 16.859 6.350 L 14.651 4 13.948 4 L 13.245 4 12.135 5.337 M 48.472 6.031 L 46.634 8.062 48.321 9.749 L 50.008 11.437 52.172 9.273 L 54.335 7.109 53.045 5.555 L 51.755 4 51.033 4 L 50.310 4 48.472 6.031 M 4.180 25.250 L 4.500 27.500 7.500 27.500 L 10.500 27.500 10.820 25.250 L 11.139 23 7.500 23 L 3.861 23 4.180 25.250 M 54.180 25.250 L 54.500 27.500 57.500 27.500 L 60.500 27.500 60.820 25.250 L 61.139 23 57.500 23 L 53.861 23 54.180 25.250 M 13.157 41.332 L 10.969 43.662 12.812 45.329 L 14.654 46.997 16.843 44.668 L 19.031 42.338 17.188 40.671 L 15.346 39.003 13.157 41.332 M 48.023 40.472 L 46.706 42.059 49.047 44.550 L 51.387 47.041 52.914 45.514 L 54.442 43.987 51.891 41.436 L 49.340 38.885 48.023 40.472 M 23.703 46.631 L 23 47.333 23 49.167 L 23 51 32.570 51 L 42.139 51 41.820 48.750 L 41.500 46.500 32.953 46.214 L 24.405 45.928 23.703 46.631" stroke="none" fill="#04a4e4" fill-rule="evenodd"/></svg>