<svg xmlns="http://www.w3.org/2000/svg" width="65" height="64" viewBox="0 0 65 64" version="1.1"><path d="M 44 26 L 44 32 38 32 L 32 32 32 38 L 32 44 26 44 L 20 44 20 52 L 20 60 40.500 60 L 61 60 61 40 L 61 20 52.500 20 L 44 20 44 26 M 49 28 L 49 32 52.500 32 L 56 32 56 28 L 56 24 52.500 24 L 49 24 49 28 M 37 40 L 37 44 40.500 44 L 44 44 44 40 L 44 36 40.500 36 L 37 36 37 40 M 49 40 L 49 44 52.500 44 L 56 44 56 40 L 56 36 52.500 36 L 49 36 49 40 M 25 52 L 25 56 28.500 56 L 32 56 32 52 L 32 48 28.500 48 L 25 48 25 52 M 37 52 L 37 56 40.500 56 L 44 56 44 52 L 44 48 40.500 48 L 37 48 37 52 M 49 52 L 49 56 52.500 56 L 56 56 56 52 L 56 48 52.500 48 L 49 48 49 52" stroke="none" fill="#242424" fill-rule="evenodd"/><path d="M 4 12 L 4 20 12.500 20 L 21 20 21 12 L 21 4 12.500 4 L 4 4 4 12 M 9 12 L 9 16 12.500 16 L 16 16 16 12 L 16 8 12.500 8 L 9 8 9 12 M 24 18 L 24 26 32.500 26 L 41 26 41 18 L 41 10 32.500 10 L 24 10 24 18 M 29 18 L 29 22 32.500 22 L 36 22 36 18 L 36 14 32.500 14 L 29 14 29 18 M 4 36 L 4 44 12.500 44 L 21 44 21 36 L 21 28 12.500 28 L 4 28 4 36 M 9 36 L 9 40 12.500 40 L 16 40 16 36 L 16 32 12.500 32 L 9 32 9 36" stroke="none" fill="#04a4e4" fill-rule="evenodd"/></svg>